<svg width="120" height="40" viewBox="0 0 120 40" fill="none" xmlns="http://www.w3.org/2000/svg">
  <path d="M15 8H25C28.866 8 32 11.134 32 15V25C32 28.866 28.866 32 25 32H15C11.134 32 8 28.866 8 25V15C8 11.134 11.134 8 15 8Z" fill="#7E3AF2"/>
  <path d="M42 10H48.5C51.5376 10 54 12.4624 54 15.5V15.5C54 18.5376 51.5376 21 48.5 21H42V10Z" fill="#7E3AF2"/>
  <path d="M42 21H48.5C51.5376 21 54 23.4624 54 26.5V26.5C54 29.5376 51.5376 32 48.5 32H42V21Z" fill="#7E3AF2"/>
  <path d="M60 10H66.5C69.5376 10 72 12.4624 72 15.5V15.5C72 18.5376 69.5376 21 66.5 21H60V10Z" fill="#7E3AF2"/>
  <path d="M60 21H66.5C69.5376 21 72 23.4624 72 26.5V26.5C72 29.5376 69.5376 32 66.5 32H60V21Z" fill="#7E3AF2"/>
  <path d="M78 10H90C93.3137 10 96 12.6863 96 16V16C96 19.3137 93.3137 22 90 22H78V10Z" fill="#7E3AF2"/>
  <path d="M78 22H84V32H78V22Z" fill="#7E3AF2"/>
  <path d="M102 10H108V32H102V10Z" fill="#7E3AF2"/>
  <path d="M114 10H120V32H114V10Z" fill="#7E3AF2"/>
</svg> 